<svg width="120" height="75" xmlns="http://www.w3.org/2000/svg"><g fill="none" fill-rule="evenodd"><path fill="#FFF" d="M0 0h120v75H0z"/><g stroke-width="2" stroke="#222829"><path d="M74 3v8h8"/><path d="M82 36V11l-8-8H38v33m0 12v17h44V52m-44-7h48m0-6H38m48 6h5v-6h-5z"/><path stroke-linecap="square" stroke-linejoin="round" d="M38 39h-2l-7 3 7 3h2z"/><path d="M50 45v-6m17 10h15V39M43 53c1.998 0 2.002 2 4 2 1.998 0 2.002-2 4-2 1.999 0 2.001 2 4 2 2.002 0 1.998-2 4-2s1.998 2 4 2M43 11h2m2 0h2m2 0h2m-10 6h34m-34 4h34m-34 4h34m-34 4h34m-34 4h16M43 59h20"/></g></g></svg>